<svg width="24" height="24" viewBox="0 0 24 24" fill="none" xmlns="http://www.w3.org/2000/svg">
<path fill-rule="evenodd" clip-rule="evenodd" d="M1.5 12C1.5 11.1716 2.17157 10.5 3 10.5H21C21.8284 10.5 22.5 11.1716 22.5 12C22.5 12.8284 21.8284 13.5 21 13.5H3C2.17157 13.5 1.5 12.8284 1.5 12Z" fill="white"/>
<path fill-rule="evenodd" clip-rule="evenodd" d="M1.5 6C1.5 5.17157 2.17157 4.5 3 4.5H21C21.8284 4.5 22.5 5.17157 22.5 6C22.5 6.82843 21.8284 7.5 21 7.5H3C2.17157 7.5 1.5 6.82843 1.5 6Z" fill="white"/>
<path fill-rule="evenodd" clip-rule="evenodd" d="M1.5 18C1.5 17.1716 2.17157 16.5 3 16.5H21C21.8284 16.5 22.5 17.1716 22.5 18C22.5 18.8284 21.8284 19.5 21 19.5H3C2.17157 19.5 1.5 18.8284 1.5 18Z" fill="white"/>
</svg>
