<svg width="211" height="40" viewBox="0 0 211 40" fill="none" xmlns="http://www.w3.org/2000/svg">
<path d="M6.26659 12.0975L1.70923 9.17072L16.9004 0L32.0917 9.17072L27.3444 12.0975L16.9004 5.85365L6.26659 12.0975Z" fill="#080421"/>
<path d="M33.9903 12.4879L29.0531 15.4147V28.0976L18.7991 33.9512V40L33.9903 31.0244V12.4879Z" fill="#080421"/>
<path d="M-4.95911e-05 12.4879L4.93709 15.4147V28.0976L15.1912 33.9512V40L-4.95911e-05 31.0244V12.4879Z" fill="#080421"/>
<path d="M15.1912 10.9269L7.97534 15.2196V23.8049L15.1912 19.7074V10.9269Z" fill="#080421"/>
<path d="M18.6094 10.9269L25.8252 15.2196V23.8049L18.6094 19.7074V10.9269Z" fill="#080421"/>
<path d="M16.9004 22.6342L9.87451 26.7318L16.9004 31.4147L24.1163 26.7318L16.9004 22.6342Z" fill="#080421"/>
<path d="M67.0698 29.0483C67.0698 29.3075 67.0235 29.5483 66.9309 29.7705C66.8384 29.9927 66.7087 30.1872 66.5421 30.3538C66.3847 30.5112 66.195 30.6362 65.9728 30.7288C65.7506 30.8214 65.5099 30.8677 65.2507 30.8677H52.2256C51.8924 30.8677 51.5313 30.8307 51.1425 30.7566C50.763 30.6733 50.3834 30.5483 50.0039 30.3816C49.6336 30.2149 49.2772 30.002 48.9346 29.7427C48.5921 29.4742 48.2866 29.1548 48.0182 28.7844C47.759 28.4048 47.5507 27.9696 47.3933 27.4788C47.2359 26.9788 47.1572 26.4187 47.1572 25.7983V16.0205C47.1572 15.6872 47.1943 15.3307 47.2683 14.9511C47.3516 14.5622 47.4766 14.1826 47.6432 13.8122C47.8099 13.4326 48.0274 13.0715 48.2959 12.7289C48.5643 12.3863 48.8837 12.0853 49.254 11.8261C49.6336 11.5576 50.0687 11.3446 50.5593 11.1872C51.0499 11.0298 51.6054 10.9511 52.2256 10.9511H66.9032V14.5622H52.2256C51.7535 14.5622 51.3925 14.6872 51.1425 14.9372C50.8926 15.1872 50.7676 15.5576 50.7676 16.0483V25.7983C50.7676 26.2612 50.8926 26.6224 51.1425 26.8816C51.4017 27.1316 51.7628 27.2566 52.2256 27.2566H63.4594V22.7288H53.8503V19.09H65.2507C65.5099 19.09 65.7506 19.1409 65.9728 19.2427C66.195 19.3353 66.3847 19.465 66.5421 19.6316C66.7087 19.7983 66.8384 19.9927 66.9309 20.215C67.0235 20.4279 67.0698 20.6594 67.0698 20.9094V29.0483Z" fill="#D03737"/>
<path d="M90.3705 30.8677H86.7602V25.9788H74.0683V30.8677H70.458V20.9094C70.458 19.4557 70.7079 18.1177 71.2078 16.8955C71.7077 15.6733 72.402 14.6224 73.2907 13.7428C74.1794 12.8631 75.2301 12.1779 76.4428 11.6872C77.6556 11.1965 78.9794 10.9511 80.4143 10.9511H88.5515C88.8014 10.9511 89.0375 10.9974 89.2596 11.09C89.4818 11.1826 89.6762 11.3122 89.8429 11.4789C90.0095 11.6455 90.1391 11.84 90.2317 12.0622C90.3242 12.2844 90.3705 12.5205 90.3705 12.7705V30.8677ZM74.0683 22.3677H86.7602V14.5622H80.4143C80.3032 14.5622 80.0671 14.5807 79.7061 14.6178C79.3543 14.6455 78.9423 14.7242 78.4702 14.8539C78.0073 14.9835 77.5167 15.1826 76.9983 15.4511C76.4799 15.7196 76.0031 16.09 75.568 16.5622C75.1329 17.0344 74.7719 17.627 74.4849 18.34C74.2072 19.0437 74.0683 19.9001 74.0683 20.9094V22.3677Z" fill="#D03737"/>
<path d="M117.754 30.8677H114.116V19.0066L107.714 30.2705C107.557 30.5575 107.335 30.7751 107.048 30.9233C106.77 31.0714 106.469 31.1455 106.145 31.1455C105.83 31.1455 105.534 31.0714 105.256 30.9233C104.988 30.7751 104.775 30.5575 104.618 30.2705L98.1884 19.0066V30.8677H94.578V12.4928C94.578 12.0761 94.6983 11.7057 94.939 11.3816C95.189 11.0576 95.513 10.84 95.9111 10.7289C96.1055 10.6826 96.2999 10.6687 96.4943 10.6872C96.6887 10.6965 96.8738 10.7381 97.0497 10.8122C97.2349 10.877 97.4015 10.9742 97.5496 11.1039C97.6977 11.2242 97.8227 11.3724 97.9245 11.5483L106.145 25.84L114.366 11.5483C114.578 11.1965 114.87 10.9465 115.24 10.7983C115.62 10.6502 116.013 10.627 116.421 10.7289C116.81 10.84 117.129 11.0576 117.379 11.3816C117.629 11.7057 117.754 12.0761 117.754 12.4928V30.8677Z" fill="#D03737"/>
<path d="M138.333 22.7288H126.932V19.09H138.333V22.7288ZM139.958 30.8677H126.932C126.433 30.8677 125.886 30.7798 125.294 30.6038C124.701 30.4279 124.151 30.1409 123.641 29.7427C123.142 29.3353 122.72 28.8122 122.378 28.1733C122.045 27.5251 121.878 26.7335 121.878 25.7983V12.7705C121.878 12.5205 121.924 12.2844 122.017 12.0622C122.109 11.84 122.234 11.6455 122.392 11.4789C122.558 11.3122 122.753 11.1826 122.975 11.09C123.197 10.9974 123.438 10.9511 123.697 10.9511H139.958V14.5622H125.488V25.7983C125.488 26.2705 125.613 26.6316 125.863 26.8816C126.113 27.1316 126.479 27.2566 126.96 27.2566H139.958V30.8677Z" fill="#D03737"/>
<path d="M163.328 26.4927C163.328 26.9372 163.249 27.414 163.092 27.9233C162.944 28.4325 162.694 28.9048 162.342 29.3399C161.999 29.7751 161.55 30.1409 160.995 30.4372C160.439 30.7242 159.759 30.8677 158.954 30.8677H145.248C144.989 30.8677 144.748 30.8214 144.526 30.7288C144.304 30.6362 144.109 30.5112 143.943 30.3538C143.785 30.1872 143.66 29.9927 143.568 29.7705C143.475 29.5483 143.429 29.3075 143.429 29.0483V12.7705C143.429 12.5205 143.475 12.2844 143.568 12.0622C143.66 11.84 143.785 11.6455 143.943 11.4789C144.109 11.3122 144.304 11.1826 144.526 11.09C144.748 10.9974 144.989 10.9511 145.248 10.9511H157.329C157.773 10.9511 158.25 11.0298 158.759 11.1872C159.268 11.3446 159.74 11.5992 160.176 11.9511C160.62 12.2937 160.986 12.7428 161.273 13.2983C161.569 13.8539 161.717 14.5344 161.717 15.34V16.0205C161.717 16.6594 161.61 17.3492 161.398 18.09C161.185 18.8214 160.842 19.5159 160.37 20.1733C160.777 20.4233 161.157 20.7242 161.509 21.0761C161.87 21.4279 162.184 21.8353 162.453 22.2983C162.721 22.7613 162.934 23.2844 163.092 23.8677C163.249 24.4511 163.328 25.0946 163.328 25.7983V26.4927ZM159.717 25.7983C159.717 25.3261 159.643 24.9048 159.495 24.5344C159.347 24.1548 159.139 23.8307 158.87 23.5622C158.602 23.2937 158.278 23.09 157.898 22.9511C157.519 22.8029 157.093 22.7288 156.621 22.7288H148.484V19.09H154.996C155.468 19.09 155.894 19.0205 156.274 18.8816C156.653 18.7335 156.977 18.5252 157.246 18.2566C157.514 17.9881 157.718 17.6687 157.857 17.2983C158.005 16.9187 158.079 16.4927 158.079 16.0205V15.34C158.079 14.8215 157.829 14.5622 157.329 14.5622H147.039V27.2566H158.954C159.018 27.2566 159.097 27.252 159.19 27.2427C159.282 27.2335 159.366 27.2057 159.44 27.1594C159.514 27.1131 159.578 27.0344 159.634 26.9233C159.69 26.8122 159.717 26.6594 159.717 26.465V25.7983Z" fill="#D03737"/>
<path d="M187.378 22.8122C187.378 24.0251 187.17 25.1409 186.753 26.1594C186.337 27.1779 185.758 28.0575 185.018 28.7983C184.277 29.539 183.398 30.1177 182.379 30.5344C181.37 30.9418 180.269 31.1455 179.074 31.1455H174.187C172.992 31.1455 171.886 30.9418 170.868 30.5344C169.849 30.1177 168.97 29.539 168.229 28.7983C167.489 28.0575 166.906 27.1779 166.48 26.1594C166.063 25.1409 165.855 24.0251 165.855 22.8122V19.0066C165.855 17.8029 166.063 16.6918 166.48 15.6733C166.906 14.6455 167.489 13.7659 168.229 13.0344C168.97 12.2937 169.849 11.715 170.868 11.2983C171.886 10.8816 172.992 10.6733 174.187 10.6733H179.074C180.269 10.6733 181.37 10.8816 182.379 11.2983C183.398 11.715 184.277 12.2937 185.018 13.0344C185.758 13.7659 186.337 14.6455 186.753 15.6733C187.17 16.6918 187.378 17.8029 187.378 19.0066V22.8122ZM183.768 19.0066C183.768 18.2937 183.652 17.6502 183.421 17.0761C183.199 16.4927 182.879 15.9974 182.463 15.59C182.055 15.1733 181.56 14.8539 180.977 14.6316C180.403 14.4002 179.769 14.2844 179.074 14.2844H174.187C173.483 14.2844 172.84 14.4002 172.256 14.6316C171.682 14.8539 171.187 15.1733 170.771 15.59C170.354 15.9974 170.03 16.4927 169.799 17.0761C169.576 17.6502 169.465 18.2937 169.465 19.0066V22.8122C169.465 23.5251 169.576 24.1733 169.799 24.7566C170.03 25.3307 170.354 25.8261 170.771 26.2427C171.187 26.6501 171.682 26.9696 172.256 27.2011C172.84 27.4233 173.483 27.5344 174.187 27.5344H179.047C179.75 27.5344 180.389 27.4233 180.963 27.2011C181.546 26.9696 182.046 26.6501 182.463 26.2427C182.879 25.8261 183.199 25.3307 183.421 24.7566C183.652 24.1733 183.768 23.5251 183.768 22.8122V19.0066Z" fill="#D03737"/>
<path d="M199.515 18.0622L205.597 10.9511H210.526L201.959 20.9372L210.471 30.8677H205.569L199.515 23.8122L193.488 30.8677H188.572L197.071 20.9372L188.545 10.9511H193.433L199.515 18.0622Z" fill="#D03737"/>
</svg>
